<svg xmlns="http://www.w3.org/2000/svg" width="1440" height="100"><path d="M769,50L838,-28L773,-42Z" fill="#bb8e78" stroke="#bb8e78" stroke-width="1.51"/><path d="M838,-28L778,-97L773,-42Z" fill="#bb8e78" stroke="#bb8e78" stroke-width="1.51"/><path d="M838,-28L858,-168L778,-97Z" fill="#b88b77" stroke="#b88b77" stroke-width="1.51"/><path d="M912,115L918,-72L838,-28Z" fill="#bf8c77" stroke="#bf8c77" stroke-width="1.51"/><path d="M769,50L912,115L838,-28Z" fill="#ece6e4" stroke="#ece6e4" stroke-width="1.51"/><path d="M649,-122L644,71L773,-42Z" fill="#c29374" stroke="#c29374" stroke-width="1.51"/><path d="M773,-42L644,71L769,50Z" fill="#fbcca0" stroke="#fbcca0" stroke-width="1.51"/><path d="M769,50L780,244L912,115Z" fill="#866d9a" stroke="#866d9a" stroke-width="1.51"/><path d="M918,-72L858,-168L838,-28Z" fill="#b38775" stroke="#b38775" stroke-width="1.51"/><path d="M778,-97L649,-122L773,-42Z" fill="#c1947a" stroke="#c1947a" stroke-width="1.51"/><path d="M858,-168L649,-122L778,-97Z" fill="#be9179" stroke="#be9179" stroke-width="1.51"/><path d="M649,-122L567,-20L644,71Z" fill="#c18e66" stroke="#c18e66" stroke-width="1.51"/><path d="M644,71L780,244L769,50Z" fill="#8f759d" stroke="#8f759d" stroke-width="1.51"/><path d="M596,228L780,244L644,71Z" fill="#927294" stroke="#927294" stroke-width="1.51"/><path d="M780,244L892,226L912,115Z" fill="#826a98" stroke="#826a98" stroke-width="1.51"/><path d="M348,-170L414,-135L649,-122Z" fill="#be7d3f" stroke="#be7d3f" stroke-width="1.51"/><path d="M918,-72L975,-198L858,-168Z" fill="#ad7f72" stroke="#ad7f72" stroke-width="1.51"/><path d="M1150,-165L975,-198L918,-72Z" fill="#a1706a" stroke="#a1706a" stroke-width="1.51"/><path d="M1028,167L918,-72L912,115Z" fill="#b9b4d7" stroke="#b9b4d7" stroke-width="1.51"/><path d="M567,-20L506,177L644,71Z" fill="#cbb3b9" stroke="#cbb3b9" stroke-width="1.51"/><path d="M649,-122L521,-25L567,-20Z" fill="#c18a5d" stroke="#c18a5d" stroke-width="1.51"/><path d="M982,219L1028,167L912,115Z" fill="#73598f" stroke="#73598f" stroke-width="1.51"/><path d="M892,226L982,219L912,115Z" fill="#796093" stroke="#796093" stroke-width="1.51"/><path d="M1062,241L982,219L892,226Z" fill="#73588e" stroke="#73588e" stroke-width="1.51"/><path d="M506,177L596,228L644,71Z" fill="#946c82" stroke="#946c82" stroke-width="1.51"/><path d="M521,-25L506,177L567,-20Z" fill="#fedeb6" stroke="#fedeb6" stroke-width="1.51"/><path d="M1028,167L1174,19L918,-72Z" fill="#d6bab8" stroke="#d6bab8" stroke-width="1.51"/><path d="M982,219L1062,241L1028,167Z" fill="#6c518a" stroke="#6c518a" stroke-width="1.51"/><path d="M780,244L1062,241L892,226Z" fill="#7b6294" stroke="#7b6294" stroke-width="1.51"/><path d="M506,177L500,211L596,228Z" fill="#956676" stroke="#956676" stroke-width="1.51"/><path d="M268,246L500,211L506,177Z" fill="#96575b" stroke="#96575b" stroke-width="1.51"/><path d="M1062,241L1134,160L1028,167Z" fill="#644884" stroke="#644884" stroke-width="1.51"/><path d="M1134,160L1174,19L1028,167Z" fill="#5e417f" stroke="#5e417f" stroke-width="1.51"/><path d="M1174,19L1172,-59L918,-72Z" fill="#946262" stroke="#946262" stroke-width="1.51"/><path d="M1172,-59L1150,-165L918,-72Z" fill="#966463" stroke="#966463" stroke-width="1.51"/><path d="M521,-25L356,-43L506,177Z" fill="#ffc886" stroke="#ffc886" stroke-width="1.51"/><path d="M649,-122L414,-135L521,-25Z" fill="#c0844f" stroke="#c0844f" stroke-width="1.51"/><path d="M348,-170L649,-122L858,-168Z" fill="#c18e65" stroke="#c18e65" stroke-width="1.51"/><path d="M1174,19L1226,61L1172,-59Z" fill="#97565b" stroke="#97565b" stroke-width="1.51"/><path d="M1172,-59L1233,-207L1150,-165Z" fill="#854d58" stroke="#854d58" stroke-width="1.51"/><path d="M1134,160L1226,61L1174,19Z" fill="#7d6ca9" stroke="#7d6ca9" stroke-width="1.51"/><path d="M1210,253L1226,61L1134,160Z" fill="#513176" stroke="#513176" stroke-width="1.51"/><path d="M414,-135L356,-43L521,-25Z" fill="#bd7734" stroke="#bd7734" stroke-width="1.51"/><path d="M1062,241L1210,253L1134,160Z" fill="#5a3d7c" stroke="#5a3d7c" stroke-width="1.51"/><path d="M1447,297L1210,253L1062,241Z" fill="#49246f" stroke="#49246f" stroke-width="1.51"/><path d="M414,-135L348,-170L356,-43Z" fill="#b76d26" stroke="#b76d26" stroke-width="1.51"/><path d="M975,-198L348,-170L858,-168Z" fill="#c1957a" stroke="#c1957a" stroke-width="1.51"/><path d="M1326,-165L1233,-207L1172,-59Z" fill="#7c3d52" stroke="#7c3d52" stroke-width="1.51"/><path d="M1150,-165L1233,-207L975,-198Z" fill="#8f5c5f" stroke="#8f5c5f" stroke-width="1.51"/><path d="M160,3L266,85L356,-43Z" fill="#d0730f" stroke="#d0730f" stroke-width="1.51"/><path d="M356,-43L266,85L506,177Z" fill="#d39e8a" stroke="#d39e8a" stroke-width="1.51"/><path d="M1405,-56L1172,-59L1226,61Z" fill="#78374f" stroke="#78374f" stroke-width="1.51"/><path d="M1405,-56L1326,-165L1172,-59Z" fill="#742f4b" stroke="#742f4b" stroke-width="1.51"/><path d="M1210,253L1356,101L1226,61Z" fill="#461d6d" stroke="#461d6d" stroke-width="1.51"/><path d="M266,85L268,246L506,177Z" fill="#90494a" stroke="#90494a" stroke-width="1.51"/><path d="M500,211L268,246L596,228Z" fill="#965b62" stroke="#965b62" stroke-width="1.51"/><path d="M596,228L268,246L780,244Z" fill="#95677a" stroke="#95677a" stroke-width="1.51"/><path d="M1447,297L1421,282L1210,253Z" fill="#380a5b" stroke="#380a5b" stroke-width="1.51"/><path d="M1356,101L1405,-56L1226,61Z" fill="#a97288" stroke="#a97288" stroke-width="1.51"/><path d="M266,85L204,232L268,246Z" fill="#84383c" stroke="#84383c" stroke-width="1.51"/><path d="M143,56L204,232L266,85Z" fill="#7e3239" stroke="#7e3239" stroke-width="1.51"/><path d="M139,-171L160,3L356,-43Z" fill="#a4540b" stroke="#a4540b" stroke-width="1.51"/><path d="M160,3L143,56L266,85Z" fill="#e6aa7d" stroke="#e6aa7d" stroke-width="1.51"/><path d="M1356,101L1472,43L1405,-56Z" fill="#9a5a60" stroke="#9a5a60" stroke-width="1.51"/><path d="M1515,111L1472,43L1356,101Z" fill="#4c2871" stroke="#4c2871" stroke-width="1.51"/><path d="M72,24L105,91L143,56Z" fill="#cd987b" stroke="#cd987b" stroke-width="1.51"/><path d="M348,-170L139,-171L356,-43Z" fill="#ad5d0d" stroke="#ad5d0d" stroke-width="1.51"/><path d="M975,-198L139,-171L348,-170Z" fill="#bf7f44" stroke="#bf7f44" stroke-width="1.51"/><path d="M1233,-207L139,-171L975,-198Z" fill="#bc8f79" stroke="#bc8f79" stroke-width="1.51"/><path d="M1210,253L1421,282L1356,101Z" fill="#3c0e62" stroke="#3c0e62" stroke-width="1.51"/><path d="M1447,297L1062,241L780,244Z" fill="#604481" stroke="#604481" stroke-width="1.51"/><path d="M72,24L143,56L160,3Z" fill="#d27f2f" stroke="#d27f2f" stroke-width="1.51"/><path d="M143,56L105,91L204,232Z" fill="#762b36" stroke="#762b36" stroke-width="1.51"/><path d="M1472,43L1482,-160L1405,-56Z" fill="#5c1c30" stroke="#5c1c30" stroke-width="1.51"/><path d="M1405,-56L1482,-160L1326,-165Z" fill="#622137" stroke="#622137" stroke-width="1.51"/><path d="M1326,-165L1482,-160L1233,-207Z" fill="#6c2842" stroke="#6c2842" stroke-width="1.51"/><path d="M116,273L1447,297L780,244Z" fill="#8a719b" stroke="#8a719b" stroke-width="1.51"/><path d="M1421,282L1515,111L1356,101Z" fill="#2e014d" stroke="#2e014d" stroke-width="1.51"/><path d="M17,-84L72,24L160,3Z" fill="#8e4308" stroke="#8e4308" stroke-width="1.51"/><path d="M1447,297L1515,111L1421,282Z" fill="#2d004b" stroke="#2d004b" stroke-width="1.51"/><path d="M1472,43L1574,43L1482,-160Z" fill="#5c1c30" stroke="#5c1c30" stroke-width="1.51"/><path d="M-45,93L116,273L105,91Z" fill="#672232" stroke="#672232" stroke-width="1.51"/><path d="M105,91L116,273L204,232Z" fill="#752a35" stroke="#752a35" stroke-width="1.51"/><path d="M204,232L116,273L268,246Z" fill="#7d3139" stroke="#7d3139" stroke-width="1.51"/><path d="M268,246L116,273L780,244Z" fill="#935053" stroke="#935053" stroke-width="1.51"/><path d="M1638,176L1574,43L1515,111Z" fill="#2d004b" stroke="#2d004b" stroke-width="1.51"/><path d="M1515,111L1574,43L1472,43Z" fill="#775d91" stroke="#775d91" stroke-width="1.51"/><path d="M139,-171L17,-84L160,3Z" fill="#924508" stroke="#924508" stroke-width="1.51"/><path d="M72,24L-45,93L105,91Z" fill="#ac786e" stroke="#ac786e" stroke-width="1.51"/><path d="M-82,-34L-45,93L72,24Z" fill="#ba712d" stroke="#ba712d" stroke-width="1.51"/><path d="M1617,293L1638,176L1515,111Z" fill="#2d004b" stroke="#2d004b" stroke-width="1.51"/><path d="M1574,43L1638,-192L1482,-160Z" fill="#5c1c30" stroke="#5c1c30" stroke-width="1.51"/><path d="M1482,-160L1638,-192L1233,-207Z" fill="#5c1c30" stroke="#5c1c30" stroke-width="1.51"/><path d="M1817,-40L1638,-192L1574,43Z" fill="#5c1c30" stroke="#5c1c30" stroke-width="1.51"/><path d="M1447,297L1617,293L1515,111Z" fill="#2d004b" stroke="#2d004b" stroke-width="1.51"/><path d="M17,-84L-82,-34L72,24Z" fill="#7f3b08" stroke="#7f3b08" stroke-width="1.51"/><path d="M-84,-161L-82,-34L17,-84Z" fill="#7f3b08" stroke="#7f3b08" stroke-width="1.51"/><path d="M139,-171L-84,-161L17,-84Z" fill="#833d08" stroke="#833d08" stroke-width="1.51"/><path d="M-45,93L-115,213L116,273Z" fill="#5c1c30" stroke="#5c1c30" stroke-width="1.51"/><path d="M-171,99L-115,213L-45,93Z" fill="#5c1c30" stroke="#5c1c30" stroke-width="1.51"/><path d="M-171,99L-45,93L-82,-34Z" fill="#be9179" stroke="#be9179" stroke-width="1.51"/><path d="M1716,284L1733,94L1638,176Z" fill="#2d004b" stroke="#2d004b" stroke-width="1.51"/><path d="M1638,176L1733,94L1574,43Z" fill="#2d004b" stroke="#2d004b" stroke-width="1.51"/><path d="M1617,293L1716,284L1638,176Z" fill="#2d004b" stroke="#2d004b" stroke-width="1.51"/><path d="M-84,-161L-160,-137L-82,-34Z" fill="#7f3b08" stroke="#7f3b08" stroke-width="1.51"/><path d="M-224,48L-171,99L-82,-34Z" fill="#c08654" stroke="#c08654" stroke-width="1.51"/><path d="M1638,-192L1778,-205L1233,-207Z" fill="#5c1c30" stroke="#5c1c30" stroke-width="1.51"/><path d="M1817,-40L1778,-205L1638,-192Z" fill="#5c1c30" stroke="#5c1c30" stroke-width="1.51"/><path d="M1817,-40L1574,43L1733,94Z" fill="#965c65" stroke="#965c65" stroke-width="1.51"/><path d="M-171,99L-161,306L-115,213Z" fill="#5c1c30" stroke="#5c1c30" stroke-width="1.51"/><path d="M-115,213L-161,306L116,273Z" fill="#5c1c30" stroke="#5c1c30" stroke-width="1.51"/><path d="M116,273L-161,306L1447,297Z" fill="#965d65" stroke="#965d65" stroke-width="1.51"/><path d="M1716,284L1817,-40L1733,94Z" fill="#2d004b" stroke="#2d004b" stroke-width="1.51"/><path d="M-171,99L-224,48L-161,306Z" fill="#5c1c30" stroke="#5c1c30" stroke-width="1.51"/><path d="M-160,-137L-224,48L-82,-34Z" fill="#7f3b08" stroke="#7f3b08" stroke-width="1.51"/></svg>